<svg width="360" height="64" viewBox="0 0 360 64" fill="none" xmlns="http://www.w3.org/2000/svg">
<rect width="360" height="64" rx="32" fill="#E6E8EB"/>
<path d="M147.384 39.1431V26.3462H151.163C152.294 26.3462 153.296 26.5981 154.169 27.1021C155.048 27.606 155.727 28.3208 156.208 29.2466C156.688 30.1724 156.928 31.2329 156.928 32.4282V33.0698C156.928 34.2827 156.685 35.3491 156.199 36.269C155.718 37.189 155.03 37.8979 154.134 38.396C153.243 38.894 152.22 39.1431 151.066 39.1431H147.384ZM149.607 28.1392V37.3677H151.057C152.223 37.3677 153.117 37.0044 153.738 36.2778C154.365 35.5454 154.684 34.4966 154.696 33.1313V32.4194C154.696 31.0308 154.394 29.9702 153.791 29.2378C153.187 28.5054 152.311 28.1392 151.163 28.1392H149.607ZM161.209 39.1431H159.073V29.6333H161.209V39.1431ZM158.941 27.1636C158.941 26.8354 159.044 26.563 159.249 26.3462C159.46 26.1294 159.759 26.021 160.145 26.021C160.532 26.021 160.831 26.1294 161.042 26.3462C161.253 26.563 161.358 26.8354 161.358 27.1636C161.358 27.4858 161.253 27.7554 161.042 27.9722C160.831 28.1831 160.532 28.2886 160.145 28.2886C159.759 28.2886 159.46 28.1831 159.249 27.9722C159.044 27.7554 158.941 27.4858 158.941 27.1636ZM168.873 36.5591C168.873 36.1782 168.715 35.8882 168.398 35.689C168.088 35.4897 167.569 35.314 166.843 35.1616C166.116 35.0093 165.51 34.8159 165.023 34.5815C163.957 34.0659 163.424 33.3188 163.424 32.3403C163.424 31.52 163.769 30.8345 164.461 30.2837C165.152 29.7329 166.031 29.4575 167.097 29.4575C168.234 29.4575 169.151 29.7388 169.848 30.3013C170.551 30.8638 170.903 31.5933 170.903 32.4897H168.767C168.767 32.0796 168.615 31.7397 168.31 31.4702C168.006 31.1948 167.601 31.0571 167.097 31.0571C166.629 31.0571 166.245 31.1655 165.946 31.3823C165.653 31.5991 165.507 31.8892 165.507 32.2524C165.507 32.5806 165.644 32.8354 165.92 33.0171C166.195 33.1987 166.752 33.3833 167.59 33.5708C168.427 33.7524 169.084 33.9722 169.558 34.23C170.039 34.4819 170.393 34.7866 170.622 35.144C170.856 35.5015 170.973 35.9351 170.973 36.4448C170.973 37.3003 170.619 37.9946 169.91 38.5278C169.201 39.0552 168.272 39.3188 167.124 39.3188C166.344 39.3188 165.65 39.1782 165.041 38.897C164.431 38.6157 163.957 38.229 163.617 37.7368C163.277 37.2446 163.107 36.7144 163.107 36.146H165.181C165.211 36.6499 165.401 37.0396 165.753 37.3149C166.104 37.5845 166.57 37.7192 167.15 37.7192C167.713 37.7192 168.14 37.6138 168.433 37.4028C168.726 37.186 168.873 36.9048 168.873 36.5591ZM178.523 39.1431C178.429 38.9614 178.347 38.6655 178.277 38.2554C177.597 38.9644 176.765 39.3188 175.781 39.3188C174.826 39.3188 174.047 39.0464 173.443 38.5015C172.84 37.9565 172.538 37.2827 172.538 36.48C172.538 35.4663 172.913 34.6899 173.663 34.1509C174.419 33.606 175.497 33.3335 176.897 33.3335H178.207V32.7095C178.207 32.2173 178.069 31.8247 177.794 31.5317C177.518 31.2329 177.099 31.0835 176.537 31.0835C176.051 31.0835 175.652 31.2065 175.342 31.4526C175.031 31.6929 174.876 32.0005 174.876 32.3755H172.74C172.74 31.854 172.913 31.3677 173.259 30.9165C173.604 30.4595 174.073 30.1021 174.665 29.8442C175.262 29.5864 175.927 29.4575 176.66 29.4575C177.773 29.4575 178.661 29.7388 179.323 30.3013C179.985 30.8579 180.325 31.6431 180.343 32.6567V36.9458C180.343 37.8013 180.463 38.4839 180.703 38.9937V39.1431H178.523ZM176.176 37.605C176.598 37.605 176.994 37.5024 177.363 37.2974C177.738 37.0923 178.019 36.8169 178.207 36.4712V34.6782H177.055C176.264 34.6782 175.67 34.8159 175.271 35.0913C174.873 35.3667 174.674 35.7563 174.674 36.2603C174.674 36.6704 174.808 36.9985 175.078 37.2446C175.353 37.4849 175.719 37.605 176.176 37.605ZM190.925 34.4849C190.925 35.9614 190.593 37.1362 189.931 38.0093C189.275 38.8823 188.37 39.3188 187.216 39.3188C186.102 39.3188 185.235 38.9175 184.614 38.1147L184.509 39.1431H182.575V25.6431H184.711V30.5474C185.326 29.8208 186.155 29.4575 187.198 29.4575C188.358 29.4575 189.269 29.8882 189.931 30.7495C190.593 31.6108 190.925 32.8149 190.925 34.3618V34.4849ZM188.789 34.3003C188.789 33.269 188.607 32.4956 188.244 31.98C187.881 31.4644 187.353 31.2065 186.662 31.2065C185.736 31.2065 185.086 31.6108 184.711 32.4194V36.3394C185.092 37.1655 185.748 37.5786 186.679 37.5786C187.347 37.5786 187.863 37.3296 188.226 36.8315C188.59 36.3335 188.777 35.5806 188.789 34.5728V34.3003ZM194.994 39.1431H192.858V25.6431H194.994V39.1431ZM201.515 39.3188C200.162 39.3188 199.063 38.894 198.219 38.0444C197.382 37.189 196.963 36.0522 196.963 34.6343V34.3706C196.963 33.4214 197.144 32.5747 197.508 31.8306C197.877 31.0806 198.392 30.4976 199.054 30.0815C199.717 29.6655 200.455 29.4575 201.269 29.4575C202.564 29.4575 203.563 29.8706 204.266 30.6968C204.975 31.5229 205.33 32.6919 205.33 34.2036V35.0649H199.116C199.18 35.8501 199.441 36.4712 199.898 36.9282C200.361 37.3853 200.941 37.6138 201.638 37.6138C202.617 37.6138 203.414 37.2183 204.029 36.4272L205.18 37.5259C204.8 38.0942 204.29 38.5366 203.651 38.853C203.018 39.1636 202.306 39.3188 201.515 39.3188ZM201.26 31.1714C200.675 31.1714 200.2 31.3765 199.837 31.7866C199.479 32.1968 199.251 32.7681 199.151 33.5005H203.22V33.3423C203.174 32.6274 202.983 32.0884 202.649 31.7251C202.315 31.356 201.852 31.1714 201.26 31.1714ZM206.595 34.3179C206.595 32.853 206.935 31.6782 207.615 30.7935C208.295 29.9028 209.206 29.4575 210.348 29.4575C211.356 29.4575 212.171 29.8091 212.792 30.5122V25.6431H214.927V39.1431H212.994L212.888 38.1587C212.25 38.9321 211.397 39.3188 210.331 39.3188C209.218 39.3188 208.315 38.8706 207.624 37.9741C206.938 37.0776 206.595 35.8589 206.595 34.3179ZM208.731 34.5024C208.731 35.4692 208.916 36.2251 209.285 36.77C209.66 37.3091 210.19 37.5786 210.876 37.5786C211.749 37.5786 212.387 37.189 212.792 36.4097V32.3491C212.399 31.5874 211.766 31.2065 210.893 31.2065C210.202 31.2065 209.669 31.4819 209.294 32.0327C208.919 32.5776 208.731 33.4009 208.731 34.5024Z" fill="#B6BCBF"/>
</svg>
