<svg width="1440" height="80" viewBox="0 0 1440 80" fill="none" xmlns="http://www.w3.org/2000/svg">
<g filter="url(#filter0_i_22618_1440)">
<rect width="1440" height="80" fill="white"/>
</g>
<path d="M1054.16 44.7041C1054.16 44.1416 1053.96 43.708 1053.56 43.4033C1053.17 43.0986 1052.46 42.791 1051.43 42.4805C1050.39 42.1699 1049.57 41.8242 1048.96 41.4434C1047.8 40.7109 1047.22 39.7559 1047.22 38.5781C1047.22 37.5469 1047.63 36.6973 1048.47 36.0293C1049.32 35.3613 1050.41 35.0273 1051.75 35.0273C1052.64 35.0273 1053.44 35.1914 1054.13 35.5195C1054.83 35.8477 1055.38 36.3164 1055.78 36.9258C1056.17 37.5293 1056.37 38.2002 1056.37 38.9385H1054.16C1054.16 38.2705 1053.95 37.749 1053.53 37.374C1053.11 36.9932 1052.51 36.8027 1051.73 36.8027C1051.01 36.8027 1050.44 36.958 1050.04 37.2686C1049.64 37.5791 1049.44 38.0127 1049.44 38.5693C1049.44 39.0381 1049.66 39.4307 1050.09 39.7471C1050.52 40.0576 1051.24 40.3623 1052.23 40.6611C1053.23 40.9541 1054.03 41.291 1054.63 41.6719C1055.24 42.0469 1055.68 42.4805 1055.96 42.9727C1056.24 43.459 1056.38 44.0303 1056.38 44.6865C1056.38 45.7529 1055.97 46.6025 1055.15 47.2354C1054.34 47.8623 1053.23 48.1758 1051.83 48.1758C1050.9 48.1758 1050.05 48.0059 1049.27 47.666C1048.5 47.3203 1047.9 46.8457 1047.46 46.2422C1047.03 45.6387 1046.82 44.9355 1046.82 44.1328H1049.04C1049.04 44.8594 1049.28 45.4219 1049.76 45.8203C1050.25 46.2188 1050.93 46.418 1051.83 46.418C1052.6 46.418 1053.18 46.2627 1053.57 45.9521C1053.96 45.6357 1054.16 45.2197 1054.16 44.7041ZM1063.81 48C1063.72 47.8184 1063.63 47.5225 1063.56 47.1123C1062.88 47.8213 1062.05 48.1758 1061.07 48.1758C1060.11 48.1758 1059.33 47.9033 1058.73 47.3584C1058.13 46.8135 1057.82 46.1396 1057.82 45.3369C1057.82 44.3232 1058.2 43.5469 1058.95 43.0078C1059.71 42.4629 1060.78 42.1904 1062.18 42.1904H1063.49V41.5664C1063.49 41.0742 1063.36 40.6816 1063.08 40.3887C1062.8 40.0898 1062.39 39.9404 1061.82 39.9404C1061.34 39.9404 1060.94 40.0635 1060.63 40.3096C1060.32 40.5498 1060.16 40.8574 1060.16 41.2324H1058.03C1058.03 40.7109 1058.2 40.2246 1058.54 39.7734C1058.89 39.3164 1059.36 38.959 1059.95 38.7012C1060.55 38.4434 1061.21 38.3145 1061.95 38.3145C1063.06 38.3145 1063.95 38.5957 1064.61 39.1582C1065.27 39.7148 1065.61 40.5 1065.63 41.5137V45.8027C1065.63 46.6582 1065.75 47.3408 1065.99 47.8506V48H1063.81ZM1061.46 46.4619C1061.88 46.4619 1062.28 46.3594 1062.65 46.1543C1063.02 45.9492 1063.31 45.6738 1063.49 45.3281V43.5352H1062.34C1061.55 43.5352 1060.96 43.6729 1060.56 43.9482C1060.16 44.2236 1059.96 44.6133 1059.96 45.1172C1059.96 45.5273 1060.09 45.8555 1060.36 46.1016C1060.64 46.3418 1061.01 46.4619 1061.46 46.4619ZM1071.08 45.293L1073.09 38.4902H1075.3L1072 48H1070.15L1066.82 38.4902H1069.04L1071.08 45.293ZM1080.7 48.1758C1079.35 48.1758 1078.25 47.751 1077.41 46.9014C1076.57 46.0459 1076.15 44.9092 1076.15 43.4912V43.2275C1076.15 42.2783 1076.33 41.4316 1076.69 40.6875C1077.06 39.9375 1077.58 39.3545 1078.24 38.9385C1078.9 38.5225 1079.64 38.3145 1080.46 38.3145C1081.75 38.3145 1082.75 38.7275 1083.45 39.5537C1084.16 40.3799 1084.52 41.5488 1084.52 43.0605V43.9219H1078.3C1078.37 44.707 1078.63 45.3281 1079.08 45.7852C1079.55 46.2422 1080.13 46.4707 1080.83 46.4707C1081.8 46.4707 1082.6 46.0752 1083.22 45.2842L1084.37 46.3828C1083.99 46.9512 1083.48 47.3936 1082.84 47.71C1082.21 48.0205 1081.49 48.1758 1080.7 48.1758ZM1080.45 40.0283C1079.86 40.0283 1079.39 40.2334 1079.02 40.6436C1078.67 41.0537 1078.44 41.625 1078.34 42.3574H1082.41V42.1992C1082.36 41.4844 1082.17 40.9453 1081.84 40.582C1081.5 40.2129 1081.04 40.0283 1080.45 40.0283ZM1085.78 43.1748C1085.78 41.71 1086.12 40.5352 1086.8 39.6504C1087.48 38.7598 1088.39 38.3145 1089.54 38.3145C1090.54 38.3145 1091.36 38.666 1091.98 39.3691V34.5H1094.11V48H1092.18L1092.08 47.0156C1091.44 47.7891 1090.58 48.1758 1089.52 48.1758C1088.4 48.1758 1087.5 47.7275 1086.81 46.8311C1086.12 45.9346 1085.78 44.7158 1085.78 43.1748ZM1087.92 43.3594C1087.92 44.3262 1088.1 45.082 1088.47 45.627C1088.85 46.166 1089.38 46.4355 1090.06 46.4355C1090.94 46.4355 1091.57 46.0459 1091.98 45.2666V41.2061C1091.59 40.4443 1090.95 40.0635 1090.08 40.0635C1089.39 40.0635 1088.86 40.3389 1088.48 40.8896C1088.11 41.4346 1087.92 42.2578 1087.92 43.3594ZM1106.51 48C1106.41 47.8184 1106.33 47.5225 1106.26 47.1123C1105.58 47.8213 1104.75 48.1758 1103.76 48.1758C1102.81 48.1758 1102.03 47.9033 1101.43 47.3584C1100.82 46.8135 1100.52 46.1396 1100.52 45.3369C1100.52 44.3232 1100.9 43.5469 1101.65 43.0078C1102.4 42.4629 1103.48 42.1904 1104.88 42.1904H1106.19V41.5664C1106.19 41.0742 1106.05 40.6816 1105.78 40.3887C1105.5 40.0898 1105.08 39.9404 1104.52 39.9404C1104.03 39.9404 1103.64 40.0635 1103.33 40.3096C1103.01 40.5498 1102.86 40.8574 1102.86 41.2324H1100.72C1100.72 40.7109 1100.9 40.2246 1101.24 39.7734C1101.59 39.3164 1102.06 38.959 1102.65 38.7012C1103.25 38.4434 1103.91 38.3145 1104.64 38.3145C1105.76 38.3145 1106.64 38.5957 1107.31 39.1582C1107.97 39.7148 1108.31 40.5 1108.33 41.5137V45.8027C1108.33 46.6582 1108.45 47.3408 1108.69 47.8506V48H1106.51ZM1104.16 46.4619C1104.58 46.4619 1104.98 46.3594 1105.35 46.1543C1105.72 45.9492 1106 45.6738 1106.19 45.3281V43.5352H1105.04C1104.25 43.5352 1103.65 43.6729 1103.25 43.9482C1102.86 44.2236 1102.66 44.6133 1102.66 45.1172C1102.66 45.5273 1102.79 45.8555 1103.06 46.1016C1103.34 46.3418 1103.7 46.4619 1104.16 46.4619ZM1115.54 40.4414C1115.26 40.3945 1114.97 40.3711 1114.67 40.3711C1113.69 40.3711 1113.03 40.7461 1112.69 41.4961V48H1110.56V38.4902H1112.6L1112.65 39.5537C1113.17 38.7275 1113.88 38.3145 1114.79 38.3145C1115.1 38.3145 1115.35 38.3555 1115.55 38.4375L1115.54 40.4414ZM1120.01 36.1787V38.4902H1121.69V40.0723H1120.01V45.3809C1120.01 45.7441 1120.08 46.0078 1120.22 46.1719C1120.36 46.3301 1120.62 46.4092 1120.99 46.4092C1121.24 46.4092 1121.49 46.3799 1121.74 46.3213V47.9736C1121.25 48.1084 1120.78 48.1758 1120.33 48.1758C1118.69 48.1758 1117.87 47.2705 1117.87 45.46V40.0723H1116.31V38.4902H1117.87V36.1787H1120.01ZM1125.6 48H1123.46V38.4902H1125.6V48ZM1123.33 36.0205C1123.33 35.6924 1123.43 35.4199 1123.64 35.2031C1123.85 34.9863 1124.15 34.8779 1124.53 34.8779C1124.92 34.8779 1125.22 34.9863 1125.43 35.2031C1125.64 35.4199 1125.75 35.6924 1125.75 36.0205C1125.75 36.3428 1125.64 36.6123 1125.43 36.8291C1125.22 37.04 1124.92 37.1455 1124.53 37.1455C1124.15 37.1455 1123.85 37.04 1123.64 36.8291C1123.43 36.6123 1123.33 36.3428 1123.33 36.0205ZM1131.84 46.4707C1132.37 46.4707 1132.81 46.3154 1133.16 46.0049C1133.52 45.6943 1133.7 45.3105 1133.73 44.8535H1135.74C1135.72 45.4453 1135.53 45.999 1135.19 46.5146C1134.84 47.0244 1134.37 47.4287 1133.78 47.7275C1133.19 48.0264 1132.55 48.1758 1131.86 48.1758C1130.53 48.1758 1129.48 47.7451 1128.7 46.8838C1127.92 46.0225 1127.53 44.833 1127.53 43.3154V43.0957C1127.53 41.6484 1127.92 40.4912 1128.69 39.624C1129.46 38.751 1130.52 38.3145 1131.85 38.3145C1132.99 38.3145 1133.91 38.6455 1134.61 39.3076C1135.33 39.9639 1135.7 40.8281 1135.74 41.9004H1133.73C1133.7 41.3555 1133.52 40.9072 1133.16 40.5557C1132.82 40.2041 1132.38 40.0283 1131.84 40.0283C1131.15 40.0283 1130.61 40.2803 1130.24 40.7842C1129.86 41.2822 1129.67 42.041 1129.67 43.0605V43.4033C1129.67 44.4346 1129.85 45.2051 1130.22 45.7148C1130.59 46.2188 1131.13 46.4707 1131.84 46.4707ZM1139.62 48H1137.49V34.5H1139.62V48ZM1146.15 48.1758C1144.79 48.1758 1143.69 47.751 1142.85 46.9014C1142.01 46.0459 1141.59 44.9092 1141.59 43.4912V43.2275C1141.59 42.2783 1141.77 41.4316 1142.14 40.6875C1142.51 39.9375 1143.02 39.3545 1143.68 38.9385C1144.35 38.5225 1145.08 38.3145 1145.9 38.3145C1147.19 38.3145 1148.19 38.7275 1148.9 39.5537C1149.61 40.3799 1149.96 41.5488 1149.96 43.0605V43.9219H1143.75C1143.81 44.707 1144.07 45.3281 1144.53 45.7852C1144.99 46.2422 1145.57 46.4707 1146.27 46.4707C1147.25 46.4707 1148.04 46.0752 1148.66 45.2842L1149.81 46.3828C1149.43 46.9512 1148.92 47.3936 1148.28 47.71C1147.65 48.0205 1146.94 48.1758 1146.15 48.1758ZM1145.89 40.0283C1145.3 40.0283 1144.83 40.2334 1144.47 40.6436C1144.11 41.0537 1143.88 41.625 1143.78 42.3574H1147.85V42.1992C1147.8 41.4844 1147.61 40.9453 1147.28 40.582C1146.95 40.2129 1146.48 40.0283 1145.89 40.0283ZM1156.96 45.416C1156.96 45.0352 1156.8 44.7451 1156.48 44.5459C1156.17 44.3467 1155.65 44.1709 1154.93 44.0186C1154.2 43.8662 1153.59 43.6729 1153.11 43.4385C1152.04 42.9229 1151.51 42.1758 1151.51 41.1973C1151.51 40.377 1151.85 39.6914 1152.54 39.1406C1153.24 38.5898 1154.11 38.3145 1155.18 38.3145C1156.32 38.3145 1157.23 38.5957 1157.93 39.1582C1158.63 39.7207 1158.99 40.4502 1158.99 41.3467H1156.85C1156.85 40.9365 1156.7 40.5967 1156.39 40.3271C1156.09 40.0518 1155.68 39.9141 1155.18 39.9141C1154.71 39.9141 1154.33 40.0225 1154.03 40.2393C1153.74 40.4561 1153.59 40.7461 1153.59 41.1094C1153.59 41.4375 1153.73 41.6924 1154 41.874C1154.28 42.0557 1154.83 42.2402 1155.67 42.4277C1156.51 42.6094 1157.17 42.8291 1157.64 43.0869C1158.12 43.3389 1158.48 43.6436 1158.71 44.001C1158.94 44.3584 1159.06 44.792 1159.06 45.3018C1159.06 46.1572 1158.7 46.8516 1157.99 47.3848C1157.28 47.9121 1156.36 48.1758 1155.21 48.1758C1154.43 48.1758 1153.73 48.0352 1153.12 47.7539C1152.51 47.4727 1152.04 47.0859 1151.7 46.5938C1151.36 46.1016 1151.19 45.5713 1151.19 45.0029H1153.26C1153.29 45.5068 1153.48 45.8965 1153.84 46.1719C1154.19 46.4414 1154.65 46.5762 1155.23 46.5762C1155.8 46.5762 1156.22 46.4707 1156.52 46.2598C1156.81 46.043 1156.96 45.7617 1156.96 45.416Z" fill="#1A1B22"/>
<path d="M932.773 48H930.559V42.3135H924.837V48H922.613V35.2031H924.837V40.5293H930.559V35.2031H932.773V48ZM934.804 43.1572C934.804 42.2256 934.988 41.3877 935.357 40.6436C935.727 39.8936 936.245 39.3193 936.913 38.9209C937.581 38.5166 938.349 38.3145 939.216 38.3145C940.499 38.3145 941.539 38.7275 942.336 39.5537C943.139 40.3799 943.572 41.4756 943.637 42.8408L943.646 43.3418C943.646 44.2793 943.464 45.1172 943.101 45.8555C942.743 46.5938 942.228 47.165 941.554 47.5693C940.886 47.9736 940.112 48.1758 939.233 48.1758C937.892 48.1758 936.816 47.7305 936.008 46.8398C935.205 45.9434 934.804 44.751 934.804 43.2627V43.1572ZM936.939 43.3418C936.939 44.3203 937.142 45.0879 937.546 45.6445C937.95 46.1953 938.513 46.4707 939.233 46.4707C939.954 46.4707 940.514 46.1895 940.912 45.627C941.316 45.0645 941.519 44.2412 941.519 43.1572C941.519 42.1963 941.311 41.4346 940.895 40.8721C940.484 40.3096 939.925 40.0283 939.216 40.0283C938.519 40.0283 937.965 40.3066 937.555 40.8633C937.145 41.4141 936.939 42.2402 936.939 43.3418ZM947.46 38.4902L947.521 39.4834C948.189 38.7041 949.104 38.3145 950.264 38.3145C951.535 38.3145 952.405 38.8008 952.874 39.7734C953.565 38.8008 954.538 38.3145 955.792 38.3145C956.841 38.3145 957.62 38.6045 958.13 39.1846C958.646 39.7646 958.909 40.6201 958.921 41.751V48H956.785V41.8125C956.785 41.209 956.653 40.7666 956.39 40.4854C956.126 40.2041 955.689 40.0635 955.08 40.0635C954.594 40.0635 954.195 40.1953 953.885 40.459C953.58 40.7168 953.366 41.0566 953.243 41.4785L953.252 48H951.116V41.7422C951.087 40.623 950.516 40.0635 949.402 40.0635C948.547 40.0635 947.94 40.4121 947.583 41.1094V48H945.447V38.4902H947.46ZM965.302 48.1758C963.948 48.1758 962.85 47.751 962.006 46.9014C961.168 46.0459 960.749 44.9092 960.749 43.4912V43.2275C960.749 42.2783 960.931 41.4316 961.294 40.6875C961.663 39.9375 962.179 39.3545 962.841 38.9385C963.503 38.5225 964.241 38.3145 965.056 38.3145C966.351 38.3145 967.35 38.7275 968.053 39.5537C968.762 40.3799 969.116 41.5488 969.116 43.0605V43.9219H962.902C962.967 44.707 963.228 45.3281 963.685 45.7852C964.147 46.2422 964.728 46.4707 965.425 46.4707C966.403 46.4707 967.2 46.0752 967.815 45.2842L968.967 46.3828C968.586 46.9512 968.076 47.3936 967.438 47.71C966.805 48.0205 966.093 48.1758 965.302 48.1758ZM965.047 40.0283C964.461 40.0283 963.986 40.2334 963.623 40.6436C963.266 41.0537 963.037 41.625 962.938 42.3574H967.007V42.1992C966.96 41.4844 966.77 40.9453 966.436 40.582C966.102 40.2129 965.639 40.0283 965.047 40.0283Z" fill="#1A1B22"/>
<path d="M104.547 50V48.291L106.061 47.998V37.793L104.547 37.5V35.7812H108.951L115.143 45.6445L115.201 45.6348V37.793L113.385 37.5V35.7812H119.273V37.5L117.75 37.793V50H114.996L108.668 40.2344L108.609 40.2441V47.998L110.436 48.291V50H104.547ZM125.338 50.2051C124.322 50.2051 123.437 49.9837 122.682 49.541C121.933 49.0918 121.35 48.4766 120.934 47.6953C120.523 46.9141 120.318 46.0221 120.318 45.0195V44.6289C120.318 43.5807 120.514 42.653 120.904 41.8457C121.295 41.0319 121.845 40.3939 122.555 39.9316C123.271 39.4629 124.114 39.2318 125.084 39.2383C126.51 39.2383 127.6 39.6582 128.355 40.498C129.111 41.3314 129.488 42.5033 129.488 44.0137V45.5664H123.277L123.258 45.625C123.31 46.3216 123.541 46.8945 123.951 47.3438C124.361 47.793 124.944 48.0176 125.699 48.0176C126.22 48.0176 126.705 47.9525 127.154 47.8223C127.61 47.6855 128.053 47.487 128.482 47.2266L129.254 48.9844C128.818 49.3359 128.268 49.6289 127.604 49.8633C126.946 50.0911 126.191 50.2051 125.338 50.2051ZM123.297 43.6816H126.822V43.4277C126.822 42.7897 126.689 42.2852 126.422 41.9141C126.161 41.5365 125.732 41.3477 125.133 41.3477C124.56 41.3477 124.124 41.5658 123.824 42.002C123.525 42.4316 123.339 42.9753 123.268 43.6328L123.297 43.6816ZM134.264 50L131.803 41.3867L130.514 41.1523V39.4336H135.621V41.1426L134.508 41.3574L135.484 45.4688L135.68 46.2793H135.738L136.002 45.4688L138.17 39.4336H140.084L142.184 45.5469L142.457 46.4062H142.516L142.77 45.5469L143.922 41.3672L142.691 41.1426V39.4336H147.691V41.1523L146.461 41.3867L143.775 50H141.373L139.439 44.7656L139.098 43.6035H139.039L138.697 44.7754L136.793 50H134.264ZM153.131 50.2051C152.343 50.2051 151.607 50.1302 150.924 49.9805C150.247 49.8307 149.596 49.6159 148.971 49.3359L148.941 46.3477H150.924L151.305 47.8711C151.526 47.9818 151.767 48.0697 152.027 48.1348C152.294 48.1999 152.597 48.2324 152.936 48.2324C153.574 48.2324 154.023 48.1283 154.283 47.9199C154.544 47.7116 154.674 47.4512 154.674 47.1387C154.674 46.8457 154.534 46.5885 154.254 46.3672C153.974 46.1393 153.424 45.9408 152.604 45.7715C151.347 45.5111 150.423 45.1074 149.83 44.5605C149.244 44.0137 148.951 43.3138 148.951 42.4609C148.951 41.8815 149.098 41.3477 149.391 40.8594C149.69 40.3711 150.143 39.9837 150.748 39.6973C151.36 39.4043 152.141 39.2578 153.092 39.2578C153.886 39.2578 154.612 39.3359 155.27 39.4922C155.934 39.6419 156.49 39.8405 156.939 40.0879L156.969 42.9785H154.996L154.693 41.5918C154.316 41.3314 153.84 41.2012 153.268 41.2012C152.773 41.2012 152.389 41.3053 152.115 41.5137C151.848 41.7155 151.715 41.9727 151.715 42.2852C151.715 42.5586 151.832 42.806 152.066 43.0273C152.307 43.2422 152.831 43.4408 153.639 43.623C154.947 43.9225 155.901 44.3229 156.5 44.8242C157.099 45.319 157.398 46.0156 157.398 46.9141C157.398 47.8971 157.04 48.6914 156.324 49.2969C155.615 49.9023 154.55 50.2051 153.131 50.2051ZM158.629 50V48.291L160.143 47.998V37.793L158.629 37.5V35.7812H169.664V39.6191H167.477L167.35 37.9785H162.994V41.5527H167.809V43.75H162.994V47.8125H167.584L167.711 46.1133H169.879V50H158.629ZM171.148 50V48.291L172.506 48.1152L175.533 44.707L172.672 41.3184L171.393 41.1523V39.4336H176.627V41.0742L175.807 41.2012L177.34 43.2129L178.873 41.2012L177.965 41.0742V39.4336H183.014V41.1523L181.832 41.3184L179.127 44.5898L182.145 48.1152L183.443 48.291V50H178.023V48.3691L178.941 48.2422L177.311 46.2207L175.719 48.252L176.617 48.3691V50H171.148ZM184.293 54.0625V52.3438L185.67 52.0508V41.4453L184.146 41.1523V39.4336H188.287L188.424 40.6641C188.736 40.2083 189.114 39.8568 189.557 39.6094C189.999 39.362 190.527 39.2383 191.139 39.2383C191.992 39.2383 192.721 39.4727 193.326 39.9414C193.932 40.4036 194.394 41.0514 194.713 41.8848C195.038 42.7181 195.201 43.6914 195.201 44.8047V45.0098C195.201 46.0514 195.038 46.9629 194.713 47.7441C194.387 48.5189 193.919 49.1243 193.307 49.5605C192.701 49.9902 191.972 50.2051 191.119 50.2051C190.006 50.2051 189.137 49.8014 188.512 48.9941V52.0508L189.889 52.3438V54.0625H184.293ZM190.27 48.0176C190.999 48.0176 191.526 47.7474 191.852 47.207C192.184 46.6667 192.35 45.9342 192.35 45.0098V44.8047C192.35 43.8086 192.18 43.0013 191.842 42.3828C191.503 41.7643 190.973 41.4551 190.25 41.4551C189.456 41.4551 188.876 41.7936 188.512 42.4707V47.0996C188.87 47.7116 189.456 48.0176 190.27 48.0176ZM196.119 50V48.291L197.496 47.998V36.7773L195.973 36.4844V34.7656H200.348V47.998L201.725 48.291V50H196.119ZM207.506 50.2051C206.458 50.2051 205.559 49.9772 204.811 49.5215C204.068 49.0658 203.499 48.4342 203.102 47.627C202.704 46.8132 202.506 45.8789 202.506 44.8242V44.6191C202.506 43.571 202.704 42.6432 203.102 41.8359C203.499 41.0221 204.068 40.3874 204.811 39.9316C205.559 39.4694 206.451 39.2383 207.486 39.2383C208.528 39.2383 209.42 39.4661 210.162 39.9219C210.911 40.3776 211.484 41.0124 211.881 41.8262C212.278 42.6335 212.477 43.5645 212.477 44.6191V44.8242C212.477 45.8789 212.278 46.8132 211.881 47.627C211.484 48.4342 210.914 49.0658 210.172 49.5215C209.43 49.9772 208.541 50.2051 207.506 50.2051ZM207.506 48.0176C208.242 48.0176 208.779 47.7246 209.117 47.1387C209.462 46.5527 209.635 45.7812 209.635 44.8242V44.6191C209.635 43.6816 209.462 42.9167 209.117 42.3242C208.772 41.7318 208.229 41.4355 207.486 41.4355C206.744 41.4355 206.204 41.7318 205.865 42.3242C205.527 42.9167 205.357 43.6816 205.357 44.6191V44.8242C205.357 45.7878 205.527 46.5625 205.865 47.1484C206.204 47.7279 206.751 48.0176 207.506 48.0176ZM213.971 50V48.291L215.338 47.998V41.4453L213.824 41.1523V39.4336H217.994L218.102 40.7422L218.121 40.9766C218.642 39.8177 219.423 39.2383 220.465 39.2383C220.634 39.2383 220.816 39.2513 221.012 39.2773C221.214 39.3034 221.396 39.3424 221.559 39.3945L221.256 42.0215L219.84 41.9434C219.436 41.9238 219.107 41.9922 218.854 42.1484C218.606 42.3047 218.385 42.5293 218.189 42.8223V47.998L219.557 48.291V50H213.971ZM227.271 50.2051C226.256 50.2051 225.37 49.9837 224.615 49.541C223.867 49.0918 223.284 48.4766 222.867 47.6953C222.457 46.9141 222.252 46.0221 222.252 45.0195V44.6289C222.252 43.5807 222.447 42.653 222.838 41.8457C223.229 41.0319 223.779 40.3939 224.488 39.9316C225.204 39.4629 226.048 39.2318 227.018 39.2383C228.443 39.2383 229.534 39.6582 230.289 40.498C231.044 41.3314 231.422 42.5033 231.422 44.0137V45.5664H225.211L225.191 45.625C225.243 46.3216 225.475 46.8945 225.885 47.3438C226.295 47.793 226.878 48.0176 227.633 48.0176C228.154 48.0176 228.639 47.9525 229.088 47.8223C229.544 47.6855 229.986 47.487 230.416 47.2266L231.188 48.9844C230.751 49.3359 230.201 49.6289 229.537 49.8633C228.88 50.0911 228.124 50.2051 227.271 50.2051ZM225.23 43.6816H228.756V43.4277C228.756 42.7897 228.622 42.2852 228.355 41.9141C228.095 41.5365 227.665 41.3477 227.066 41.3477C226.493 41.3477 226.057 41.5658 225.758 42.002C225.458 42.4316 225.273 42.9753 225.201 43.6328L225.23 43.6816ZM232.955 50V48.291L234.322 47.998V41.4453L232.809 41.1523V39.4336H236.979L237.086 40.7422L237.105 40.9766C237.626 39.8177 238.408 39.2383 239.449 39.2383C239.618 39.2383 239.801 39.2513 239.996 39.2773C240.198 39.3034 240.38 39.3424 240.543 39.3945L240.24 42.0215L238.824 41.9434C238.421 41.9238 238.092 41.9922 237.838 42.1484C237.59 42.3047 237.369 42.5293 237.174 42.8223V47.998L238.541 48.291V50H232.955Z" fill="#1A1B22"/>
<path fill-rule="evenodd" clip-rule="evenodd" d="M1192 80H1014V77H1192V80Z" fill="#1A1B22"/>
<rect x="1224.5" y="19.5" width="111" height="47" rx="23.5" stroke="#D1D2D6"/>
<path d="M1251.78 43.2871H1246.52V47.2246H1252.67V49H1244.3V36.2031H1252.61V37.9961H1246.52V41.5293H1251.78V43.2871ZM1256.54 49H1254.41V35.5H1256.54V49ZM1261.15 49H1259.01V39.4902H1261.15V49ZM1258.88 37.0205C1258.88 36.6924 1258.98 36.4199 1259.19 36.2031C1259.4 35.9863 1259.7 35.8779 1260.09 35.8779C1260.47 35.8779 1260.77 35.9863 1260.98 36.2031C1261.19 36.4199 1261.3 36.6924 1261.3 37.0205C1261.3 37.3428 1261.19 37.6123 1260.98 37.8291C1260.77 38.04 1260.47 38.1455 1260.09 38.1455C1259.7 38.1455 1259.4 38.04 1259.19 37.8291C1258.98 37.6123 1258.88 37.3428 1258.88 37.0205ZM1268.81 46.416C1268.81 46.0352 1268.66 45.7451 1268.34 45.5459C1268.03 45.3467 1267.51 45.1709 1266.78 45.0186C1266.06 44.8662 1265.45 44.6729 1264.96 44.4385C1263.9 43.9229 1263.36 43.1758 1263.36 42.1973C1263.36 41.377 1263.71 40.6914 1264.4 40.1406C1265.09 39.5898 1265.97 39.3145 1267.04 39.3145C1268.17 39.3145 1269.09 39.5957 1269.79 40.1582C1270.49 40.7207 1270.84 41.4502 1270.84 42.3467H1268.71C1268.71 41.9365 1268.56 41.5967 1268.25 41.3271C1267.95 41.0518 1267.54 40.9141 1267.04 40.9141C1266.57 40.9141 1266.19 41.0225 1265.89 41.2393C1265.59 41.4561 1265.45 41.7461 1265.45 42.1094C1265.45 42.4375 1265.58 42.6924 1265.86 42.874C1266.14 43.0557 1266.69 43.2402 1267.53 43.4277C1268.37 43.6094 1269.02 43.8291 1269.5 44.0869C1269.98 44.3389 1270.33 44.6436 1270.56 45.001C1270.8 45.3584 1270.91 45.792 1270.91 46.3018C1270.91 47.1572 1270.56 47.8516 1269.85 48.3848C1269.14 48.9121 1268.21 49.1758 1267.06 49.1758C1266.29 49.1758 1265.59 49.0352 1264.98 48.7539C1264.37 48.4727 1263.9 48.0859 1263.56 47.5938C1263.22 47.1016 1263.05 46.5713 1263.05 46.0029H1265.12C1265.15 46.5068 1265.34 46.8965 1265.69 47.1719C1266.04 47.4414 1266.51 47.5762 1267.09 47.5762C1267.65 47.5762 1268.08 47.4707 1268.37 47.2598C1268.67 47.043 1268.81 46.7617 1268.81 46.416ZM1276.97 49.1758C1275.62 49.1758 1274.52 48.751 1273.67 47.9014C1272.84 47.0459 1272.42 45.9092 1272.42 44.4912V44.2275C1272.42 43.2783 1272.6 42.4316 1272.96 41.6875C1273.33 40.9375 1273.85 40.3545 1274.51 39.9385C1275.17 39.5225 1275.91 39.3145 1276.72 39.3145C1278.02 39.3145 1279.02 39.7275 1279.72 40.5537C1280.43 41.3799 1280.78 42.5488 1280.78 44.0605V44.9219H1274.57C1274.63 45.707 1274.9 46.3281 1275.35 46.7852C1275.82 47.2422 1276.4 47.4707 1277.09 47.4707C1278.07 47.4707 1278.87 47.0752 1279.48 46.2842L1280.63 47.3828C1280.25 47.9512 1279.74 48.3936 1279.11 48.71C1278.47 49.0205 1277.76 49.1758 1276.97 49.1758ZM1276.71 41.0283C1276.13 41.0283 1275.65 41.2334 1275.29 41.6436C1274.93 42.0537 1274.71 42.625 1274.61 43.3574H1278.67V43.1992C1278.63 42.4844 1278.44 41.9453 1278.1 41.582C1277.77 41.2129 1277.31 41.0283 1276.71 41.0283Z" fill="#1A1B22"/>
<path fill-rule="evenodd" clip-rule="evenodd" d="M1307 37L1303 37L1303 49H1307V51H1303C1301.9 51 1301 50.1046 1301 49V37C1301 35.8954 1301.9 35 1303 35H1307V37ZM1314.59 44L1310.29 48.1339L1311.71 49.4958L1318.41 43.0371L1311.71 36.5784L1310.29 37.9402L1314.59 42.0741H1305V44H1314.59Z" fill="#1A1B22"/>
<g filter="url(#filter1_d_22618_1440)">
<mask id="path-9-outside-1_22618_1440" maskUnits="userSpaceOnUse" x="960" y="44" width="16" height="16" fill="black">
<rect fill="white" x="960" y="44" width="16" height="16"/>
<path fill-rule="evenodd" clip-rule="evenodd" d="M966.03 59C966.03 59 963.811 57.3013 963.03 56C962.25 54.6987 960.77 53.041 961.03 52C961.291 50.959 962.25 50.6309 963.03 51.4117C963.811 52.1924 964.337 53.8841 964.858 53.6238C965.378 53.3636 964.988 50.8912 964.467 49.4598C963.947 48.0284 963.404 45 964.467 45C965.53 45 965.53 46 966.03 47.5C966.53 49 966.14 51 966.53 51C966.921 51 967.07 50.6506 967.07 50C967.07 49.8232 967.104 49.6737 967.175 49.5499C967.363 49.2179 967.808 49.0694 968.53 49.0694C969.522 49.0694 969.03 51 969.53 51C970.03 51 970.03 51.041 970.03 50C970.03 48.959 970.494 49.0694 971.494 49.0694C972.494 49.0694 972.01 51 972.53 51C973.051 51 972.53 50 973.03 50C973.53 50 974.03 50.1577 974.03 52.5C974.03 54.8423 974.311 54.959 973.53 56C972.75 57.041 972.03 58 972.03 58C972.03 58 972.03 59 971.494 59C970.958 59 970.681 58 970.03 58C969.38 58 969.03 59 969.03 59H966.03ZM972.03 57V53H971.03V57H972.03ZM969.03 56C969.03 56.2709 969.262 57 969.53 57C969.806 57 970.03 56.2754 970.03 56V54C970.03 53.7291 969.798 53 969.53 53C969.254 53 969.03 53.7246 969.03 54V56ZM967.03 56C967.03 56.2709 967.262 57 967.53 57C967.806 57 968.03 56.2754 968.03 56V54C968.03 53.7291 967.798 53 967.53 53C967.254 53 967.03 53.7246 967.03 54V56Z"/>
</mask>
<path fill-rule="evenodd" clip-rule="evenodd" d="M966.03 59C966.03 59 963.811 57.3013 963.03 56C962.25 54.6987 960.77 53.041 961.03 52C961.291 50.959 962.25 50.6309 963.03 51.4117C963.811 52.1924 964.337 53.8841 964.858 53.6238C965.378 53.3636 964.988 50.8912 964.467 49.4598C963.947 48.0284 963.404 45 964.467 45C965.53 45 965.53 46 966.03 47.5C966.53 49 966.14 51 966.53 51C966.921 51 967.07 50.6506 967.07 50C967.07 49.8232 967.104 49.6737 967.175 49.5499C967.363 49.2179 967.808 49.0694 968.53 49.0694C969.522 49.0694 969.03 51 969.53 51C970.03 51 970.03 51.041 970.03 50C970.03 48.959 970.494 49.0694 971.494 49.0694C972.494 49.0694 972.01 51 972.53 51C973.051 51 972.53 50 973.03 50C973.53 50 974.03 50.1577 974.03 52.5C974.03 54.8423 974.311 54.959 973.53 56C972.75 57.041 972.03 58 972.03 58C972.03 58 972.03 59 971.494 59C970.958 59 970.681 58 970.03 58C969.38 58 969.03 59 969.03 59H966.03ZM972.03 57V53H971.03V57H972.03ZM969.03 56C969.03 56.2709 969.262 57 969.53 57C969.806 57 970.03 56.2754 970.03 56V54C970.03 53.7291 969.798 53 969.53 53C969.254 53 969.03 53.7246 969.03 54V56ZM967.03 56C967.03 56.2709 967.262 57 967.53 57C967.806 57 968.03 56.2754 968.03 56V54C968.03 53.7291 967.798 53 967.53 53C967.254 53 967.03 53.7246 967.03 54V56Z" fill="white"/>
<path d="M966.03 59L965.422 59.7941L965.692 60H966.03V59ZM963.03 56L962.173 56.5145L963.03 56ZM961.03 52L962 52.2425L961.03 52ZM963.03 51.4117L962.323 52.1188L962.323 52.1188L963.03 51.4117ZM964.858 53.6238L964.41 52.7294H964.41L964.858 53.6238ZM964.467 49.4598L965.407 49.118L964.467 49.4598ZM964.467 45V44H964.467L964.467 45ZM966.53 51L966.53 52H966.53L966.53 51ZM967.07 50H966.07H967.07ZM967.175 49.5499L966.305 49.0559L967.175 49.5499ZM968.53 49.0694V48.0694V49.0694ZM969.53 51V50V51ZM970.03 50L969.03 50L970.03 50ZM971.494 49.0694V48.0694V49.0694ZM972.53 51V52V51ZM973.03 50V49V50ZM974.03 52.5L973.03 52.5L974.03 52.5ZM972.03 58L971.23 57.4L971.03 57.6667V58H972.03ZM971.494 59V58V59ZM970.03 58V57V58ZM969.03 59V60H969.74L969.974 59.3298L969.03 59ZM972.03 57V58H973.03V57H972.03ZM972.03 53H973.03V52H972.03V53ZM971.03 53V52H970.03V53H971.03ZM971.03 57H970.03V58H971.03V57ZM966.03 59C966.638 58.2059 966.638 58.206 966.638 58.206C966.638 58.206 966.638 58.2061 966.638 58.2061C966.638 58.2061 966.638 58.2061 966.638 58.2061C966.638 58.2061 966.638 58.2059 966.638 58.2057C966.637 58.2052 966.636 58.2043 966.634 58.203C966.631 58.2004 966.626 58.1962 966.618 58.1905C966.604 58.1792 966.581 58.1618 966.552 58.1388C966.494 58.093 966.409 58.0251 966.303 57.9392C966.092 57.7671 965.803 57.5249 965.492 57.2448C964.842 56.6598 964.194 55.996 963.888 55.4855L962.173 56.5145C962.647 57.3053 963.499 58.1415 964.154 58.7312C964.495 59.0384 964.81 59.3022 965.039 59.4893C965.154 59.583 965.249 59.658 965.315 59.7101C965.348 59.7361 965.374 59.7565 965.392 59.7707C965.401 59.7778 965.408 59.7833 965.414 59.7872C965.416 59.7892 965.418 59.7907 965.42 59.7919C965.42 59.7924 965.421 59.7929 965.421 59.7933C965.422 59.7935 965.422 59.7936 965.422 59.7938C965.422 59.7938 965.422 59.7939 965.422 59.7939C965.422 59.794 965.422 59.7941 966.03 59ZM963.888 55.4855C963.673 55.1283 963.416 54.7543 963.175 54.405C962.927 54.0448 962.693 53.7057 962.492 53.3785C962.289 53.0483 962.146 52.772 962.066 52.5468C961.982 52.312 962.003 52.2313 962 52.2425L960.06 51.7575C959.927 52.2892 960.035 52.8061 960.181 53.2156C960.329 53.6347 960.556 54.0493 960.788 54.4263C961.022 54.8064 961.288 55.1907 961.528 55.5399C961.777 55.8999 961.997 56.221 962.173 56.5145L963.888 55.4855ZM962 52.2425C962.069 51.9697 962.176 51.964 962.131 51.9779C962.115 51.983 962.11 51.9771 962.131 51.9835C962.155 51.991 962.224 52.02 962.323 52.1188L963.737 50.7046C963.15 50.1167 962.343 49.8184 961.539 50.0674C960.754 50.3105 960.252 50.9893 960.06 51.7575L962 52.2425ZM962.323 52.1188C962.6 52.3959 962.835 52.8443 963.185 53.4244C963.328 53.6608 963.523 53.9738 963.756 54.2062C963.876 54.3252 964.067 54.4876 964.333 54.5799C964.637 54.6858 964.983 54.679 965.305 54.5182L964.41 52.7294C964.602 52.6337 964.818 52.631 964.99 52.6911C965.124 52.7377 965.183 52.8045 965.168 52.7893C965.132 52.7533 965.05 52.6434 964.898 52.3919C964.659 51.996 964.241 51.2082 963.737 50.7046L962.323 52.1188ZM965.305 54.5182C965.68 54.3304 965.858 54.0055 965.94 53.8003C966.027 53.5832 966.066 53.3562 966.085 53.1621C966.123 52.7692 966.098 52.3106 966.046 51.8641C965.94 50.9638 965.696 49.9119 965.407 49.118L963.527 49.8015C963.759 50.4391 963.97 51.339 964.06 52.0978C964.105 52.4809 964.113 52.7787 964.094 52.9672C964.085 53.0639 964.072 53.084 964.083 53.0575C964.089 53.0429 964.165 52.8522 964.41 52.7294L965.305 54.5182ZM965.407 49.118C965.175 48.4795 964.931 47.4551 964.871 46.6208C964.839 46.19 964.865 45.9107 964.904 45.7789C964.923 45.7174 964.921 45.7665 964.846 45.8412C964.746 45.941 964.601 46 964.467 46L964.467 44C964.068 44 963.706 44.1537 963.435 44.4246C963.188 44.6705 963.059 44.9674 962.986 45.2122C962.844 45.6929 962.839 46.2603 962.876 46.7654C962.951 47.8031 963.239 49.0087 963.527 49.8015L965.407 49.118ZM964.467 46C964.567 46 964.543 46.0197 964.492 45.9816C964.458 45.9562 964.485 45.9564 964.547 46.0953C964.611 46.2398 964.674 46.4396 964.763 46.7509C964.846 47.0425 964.948 47.4147 965.082 47.8162L966.979 47.1838C966.863 46.8353 966.777 46.52 966.686 46.2022C966.601 45.9042 966.504 45.5727 966.373 45.2797C966.24 44.9811 966.036 44.6376 965.687 44.3777C965.321 44.1053 964.899 44 964.467 44V46ZM965.082 47.8162C965.277 48.4009 965.308 49.1272 965.322 49.8324C965.328 50.1438 965.331 50.5104 965.365 50.7869C965.381 50.9165 965.415 51.1341 965.516 51.3439C965.625 51.5708 965.933 52 966.53 52L966.53 50C967.03 50 967.265 50.3667 967.319 50.4783C967.364 50.5729 967.36 50.6225 967.35 50.5412C967.332 50.3959 967.329 50.1687 967.321 49.7926C967.308 49.1228 967.284 48.0991 966.979 47.1838L965.082 47.8162ZM966.53 52C966.781 52 967.055 51.942 967.308 51.7839C967.56 51.6267 967.729 51.411 967.837 51.1984C968.035 50.8111 968.07 50.3632 968.07 50H966.07C966.07 50.1278 966.062 50.2154 966.053 50.2713C966.044 50.3301 966.037 50.3265 966.056 50.2896C966.078 50.2457 966.136 50.1579 966.25 50.0866C966.366 50.0143 966.474 50 966.53 50L966.53 52ZM968.07 50C968.07 49.9765 968.072 49.9721 968.07 49.982C968.067 49.993 968.06 50.0157 968.044 50.0439L966.305 49.0559C966.13 49.3636 966.07 49.6928 966.07 50H968.07ZM968.044 50.0439C967.99 50.1394 967.923 50.1499 967.982 50.1292C968.058 50.1027 968.224 50.0694 968.53 50.0694V48.0694C967.79 48.0694 966.792 48.1983 966.305 49.0559L968.044 50.0439ZM968.53 50.0694C968.483 50.0694 968.393 50.0552 968.298 49.9944C968.21 49.938 968.17 49.875 968.161 49.8589C968.161 49.8585 968.192 49.9302 968.223 50.1653C968.241 50.3037 968.275 50.6803 968.326 50.9128C968.354 51.0399 968.413 51.269 968.561 51.4842C968.742 51.7477 969.072 52 969.53 52V50C969.864 50 970.099 50.192 970.208 50.3499C970.284 50.4595 970.291 50.5377 970.279 50.4839C970.251 50.3544 970.251 50.2483 970.206 49.9041C970.173 49.6565 970.11 49.2456 969.907 48.8832C969.797 48.6862 969.63 48.4723 969.377 48.3103C969.117 48.1439 968.825 48.0694 968.53 48.0694V50.0694ZM969.53 52C969.587 52 969.811 52.0072 969.993 51.9749C970.111 51.9541 970.281 51.9088 970.454 51.7961C970.638 51.6765 970.768 51.5182 970.855 51.3527C970.996 51.0816 971.013 50.7906 971.021 50.6501C971.031 50.4735 971.03 50.2478 971.03 50L969.03 50C969.03 50.2727 969.03 50.4322 969.024 50.5407C969.021 50.5922 969.018 50.6048 969.02 50.5953C969.021 50.5884 969.033 50.5195 969.081 50.4281C969.136 50.3225 969.228 50.2079 969.363 50.1201C969.487 50.0392 969.598 50.0138 969.645 50.0054C969.688 49.9978 969.709 49.9993 969.676 49.9999C969.641 50.0006 969.61 50 969.53 50V52ZM971.03 50C971.03 49.9047 971.036 49.8448 971.041 49.8109C971.046 49.7767 971.049 49.7835 971.036 49.8138C971.021 49.8482 970.99 49.9029 970.934 49.9582C970.878 50.0137 970.82 50.0468 970.779 50.0645C970.742 50.0802 970.725 50.0806 970.745 50.0775C970.766 50.0743 970.805 50.0702 970.875 50.0679C970.945 50.0657 971.028 50.0657 971.135 50.0666C971.236 50.0676 971.363 50.0694 971.494 50.0694V48.0694C971.293 48.0694 971.013 48.0624 970.811 48.0689C970.603 48.0756 970.295 48.0967 969.996 48.2242C969.64 48.3753 969.363 48.6454 969.201 49.017C969.062 49.338 969.03 49.6867 969.03 50L971.03 50ZM971.494 50.0694C971.45 50.0694 971.362 50.056 971.27 49.9975C971.184 49.9431 971.145 49.8823 971.136 49.867C971.13 49.8557 971.14 49.8711 971.157 49.9335C971.172 49.9939 971.187 50.0723 971.202 50.1763C971.222 50.3177 971.26 50.6926 971.317 50.9317C971.348 51.0622 971.413 51.2923 971.57 51.5066C971.76 51.7676 972.089 52 972.53 52V50C972.842 50 973.072 50.1721 973.185 50.3275C973.264 50.4362 973.274 50.5155 973.262 50.465C973.232 50.3421 973.231 50.2343 973.182 49.8931C973.147 49.6466 973.079 49.2361 972.873 48.8751C972.761 48.6788 972.592 48.4672 972.339 48.3072C972.079 48.1431 971.788 48.0694 971.494 48.0694V50.0694ZM972.53 52C972.759 52 973.033 51.9424 973.28 51.7578C973.522 51.5769 973.643 51.3448 973.703 51.1687C973.761 51.0006 973.777 50.845 973.783 50.7467C973.79 50.6457 973.789 50.547 973.788 50.4897C973.787 50.4179 973.787 50.3895 973.788 50.3686C973.789 50.3455 973.79 50.3874 973.768 50.4578C973.744 50.534 973.677 50.6934 973.506 50.8279C973.327 50.9692 973.14 51 973.03 51V49C972.795 49 972.515 49.0621 972.267 49.2581C972.027 49.4472 971.915 49.6847 971.861 49.8547C971.809 50.0188 971.796 50.1701 971.791 50.2642C971.786 50.3605 971.788 50.4571 971.788 50.5103C971.789 50.578 971.788 50.6043 971.787 50.6205C971.786 50.6393 971.786 50.5932 971.812 50.5188C971.84 50.4365 971.913 50.2825 972.082 50.1562C972.255 50.0263 972.431 50 972.53 50V52ZM973.03 51C973.116 51 973.072 51.0105 972.996 50.9771C972.892 50.9313 972.846 50.8621 972.847 50.8632C972.86 50.8866 972.912 50.9973 972.957 51.2782C973 51.5527 973.03 51.9454 973.03 52.5L975.03 52.5C975.03 51.3192 974.915 50.4589 974.589 49.8801C974.402 49.549 974.138 49.294 973.799 49.1454C973.488 49.0092 973.195 49 973.03 49V51ZM973.03 52.5C973.03 53.1065 973.049 53.5694 973.063 53.9282C973.078 54.3035 973.085 54.5128 973.075 54.6775C973.067 54.8132 973.048 54.8811 973.019 54.948C972.982 55.0341 972.908 55.1625 972.73 55.4L974.33 56.6C974.543 56.317 974.726 56.0404 974.856 55.7387C974.994 55.4177 975.052 55.1149 975.071 54.7985C975.089 54.5111 975.075 54.187 975.061 53.8491C975.047 53.4946 975.03 53.0647 975.03 52.5L973.03 52.5ZM972.73 55.4C972.34 55.9205 971.965 56.4205 971.688 56.7904C971.549 56.9753 971.435 57.1277 971.355 57.2339C971.315 57.287 971.284 57.3285 971.263 57.3568C971.252 57.3709 971.244 57.3817 971.239 57.389C971.236 57.3926 971.234 57.3954 971.232 57.3972C971.232 57.3981 971.231 57.3988 971.231 57.3993C971.231 57.3995 971.231 57.3997 971.23 57.3998C971.23 57.3999 971.23 57.3999 971.23 57.4C971.23 57.4 971.23 57.4 971.23 57.4C971.23 57.4 971.23 57.4 972.03 58C972.83 58.6 972.83 58.6 972.83 58.6C972.83 58.6 972.83 58.6 972.83 58.6C972.83 58.5999 972.83 58.5999 972.83 58.5998C972.831 58.5997 972.831 58.5995 972.831 58.5993C972.831 58.5988 972.832 58.5981 972.832 58.5972C972.834 58.5954 972.836 58.5926 972.839 58.589C972.844 58.5817 972.852 58.5709 972.863 58.5568C972.884 58.5285 972.915 58.487 972.955 58.4339C973.035 58.3277 973.149 58.1753 973.288 57.9904C973.565 57.6205 973.94 57.1205 974.33 56.6L972.73 55.4ZM972.03 58C971.03 58 971.03 57.9997 971.03 57.9995C971.03 57.9994 971.03 57.9992 971.03 57.999C971.03 57.9987 971.03 57.9984 971.03 57.9981C971.03 57.9975 971.03 57.9969 971.03 57.9965C971.03 57.9955 971.03 57.9948 971.03 57.9942C971.03 57.9931 971.03 57.9929 971.03 57.9934C971.03 57.9943 971.03 57.9983 971.03 58.0047C971.029 58.0177 971.028 58.0397 971.026 58.0672C971.021 58.1269 971.011 58.1905 970.997 58.241C970.98 58.3044 970.976 58.2778 971.025 58.2169C971.055 58.1798 971.111 58.1223 971.201 58.0744C971.296 58.024 971.399 58 971.494 58V60C971.991 60 972.359 59.7488 972.583 59.4706C972.783 59.2222 972.879 58.9456 972.929 58.759C972.983 58.5595 973.007 58.3731 973.018 58.2453C973.024 58.1791 973.027 58.1229 973.029 58.0813C973.029 58.0603 973.03 58.0428 973.03 58.0291C973.03 58.0223 973.03 58.0164 973.03 58.0115C973.03 58.0091 973.03 58.0069 973.03 58.005C973.03 58.004 973.03 58.0031 973.03 58.0023C973.03 58.0019 973.03 58.0015 973.03 58.0011C973.03 58.0009 973.03 58.0006 973.03 58.0005C973.03 58.0003 973.03 58 972.03 58ZM971.494 58C971.693 58 971.798 58.0983 971.774 58.0783C971.737 58.0474 971.693 57.9973 971.559 57.8436C971.455 57.7241 971.279 57.5208 971.056 57.3544C970.815 57.1752 970.471 57 970.03 57V59C969.915 59 969.849 58.9498 969.861 58.9581C969.889 58.9792 969.937 59.0259 970.051 59.1564C970.134 59.2527 970.301 59.4526 970.487 59.6092C970.686 59.7767 971.027 60 971.494 60V58ZM970.03 57C969.171 57 968.66 57.6411 968.457 57.9407C968.334 58.1242 968.244 58.3007 968.186 58.4275C968.156 58.4923 968.133 58.5476 968.117 58.589C968.109 58.6097 968.102 58.6272 968.097 58.6409C968.094 58.6477 968.092 58.6536 968.09 58.6585C968.09 58.661 968.089 58.6632 968.088 58.6651C968.088 58.6661 968.087 58.667 968.087 58.6678C968.087 58.6683 968.087 58.6687 968.087 58.6691C968.087 58.6693 968.086 58.6695 968.086 58.6696C968.086 58.6699 968.086 58.6702 969.03 59C969.974 59.3298 969.974 59.3301 969.974 59.3303C969.974 59.3304 969.974 59.3307 969.974 59.3308C969.974 59.3312 969.974 59.3315 969.974 59.3318C969.973 59.3324 969.973 59.3329 969.973 59.3334C969.973 59.3344 969.972 59.3352 969.972 59.3357C969.972 59.3369 969.972 59.3371 969.972 59.3366C969.972 59.3357 969.974 59.3317 969.976 59.3251C969.982 59.3118 969.991 59.289 970.004 59.26C970.032 59.1993 970.07 59.1258 970.115 59.0593C970.137 59.0269 970.157 59.0011 970.174 58.9819C970.183 58.9725 970.19 58.9657 970.195 58.961C970.2 58.9562 970.202 58.9543 970.202 58.9545C970.201 58.9552 970.139 59 970.03 59V57ZM969.03 58H966.03V60H969.03V58ZM973.03 57V53H971.03V57H973.03ZM972.03 52H971.03V54H972.03V52ZM970.03 53V57H972.03V53H970.03ZM971.03 58H972.03V56H971.03V58ZM968.03 56C968.03 56.317 968.138 56.7051 968.259 56.9914C968.324 57.1441 968.422 57.3399 968.565 57.5154C968.681 57.6564 969.002 58 969.53 58V56C969.732 56 969.883 56.0698 969.971 56.1257C970.054 56.179 970.099 56.2315 970.113 56.2483C970.138 56.2786 970.128 56.2752 970.101 56.2118C970.078 56.1576 970.057 56.0927 970.042 56.0338C970.035 56.0054 970.032 55.9845 970.03 55.9727C970.028 55.9576 970.03 55.9687 970.03 56H968.03ZM969.53 58C970.05 58 970.371 57.6699 970.495 57.5203C970.642 57.3426 970.741 57.1443 970.806 56.9903C970.928 56.6987 971.03 56.3132 971.03 56H969.03C969.03 55.9593 969.035 55.9716 969.018 56.0416C969.004 56.1004 968.984 56.164 968.962 56.2163C968.936 56.2778 968.927 56.2779 968.955 56.2447C968.97 56.2261 969.017 56.1732 969.101 56.1204C969.19 56.0647 969.338 56 969.53 56V58ZM971.03 56V54H969.03V56H971.03ZM971.03 54C971.03 53.683 970.923 53.2949 970.802 53.0086C970.737 52.8559 970.639 52.6601 970.495 52.4846C970.38 52.3436 970.059 52 969.53 52V54C969.329 54 969.177 53.9302 969.09 53.8743C969.007 53.821 968.962 53.7685 968.948 53.7517C968.923 53.7214 968.933 53.7248 968.96 53.7882C968.983 53.8424 969.004 53.9073 969.018 53.9662C969.025 53.9946 969.029 54.0155 969.031 54.0273C969.033 54.0424 969.03 54.0313 969.03 54H971.03ZM969.53 52C969.01 52 968.689 52.3301 968.566 52.4797C968.418 52.6574 968.319 52.8557 968.255 53.0097C968.132 53.3013 968.03 53.6868 968.03 54H970.03C970.03 54.0407 970.026 54.0284 970.043 53.9584C970.057 53.8996 970.077 53.836 970.099 53.7837C970.125 53.7222 970.133 53.7221 970.106 53.7553C970.091 53.7739 970.044 53.8268 969.96 53.8796C969.87 53.9353 969.723 54 969.53 54V52ZM968.03 54V56H970.03V54H968.03ZM966.03 56C966.03 56.317 966.138 56.7051 966.259 56.9914C966.324 57.1441 966.422 57.3399 966.565 57.5154C966.681 57.6564 967.002 58 967.53 58V56C967.732 56 967.883 56.0698 967.971 56.1257C968.054 56.179 968.099 56.2315 968.113 56.2483C968.138 56.2786 968.128 56.2752 968.101 56.2118C968.078 56.1576 968.057 56.0927 968.042 56.0338C968.035 56.0054 968.032 55.9845 968.03 55.9727C968.028 55.9576 968.03 55.9687 968.03 56H966.03ZM967.53 58C968.05 58 968.371 57.6699 968.495 57.5203C968.642 57.3426 968.741 57.1443 968.806 56.9903C968.928 56.6987 969.03 56.3132 969.03 56H967.03C967.03 55.9593 967.035 55.9716 967.018 56.0416C967.004 56.1004 966.984 56.164 966.962 56.2163C966.936 56.2778 966.927 56.2779 966.955 56.2447C966.97 56.2261 967.017 56.1732 967.101 56.1204C967.19 56.0647 967.338 56 967.53 56V58ZM969.03 56V54H967.03V56H969.03ZM969.03 54C969.03 53.683 968.923 53.2949 968.802 53.0086C968.737 52.8559 968.639 52.6601 968.495 52.4846C968.38 52.3436 968.059 52 967.53 52V54C967.329 54 967.177 53.9302 967.09 53.8743C967.007 53.821 966.962 53.7685 966.948 53.7517C966.923 53.7214 966.933 53.7248 966.96 53.7882C966.983 53.8424 967.004 53.9073 967.018 53.9662C967.025 53.9946 967.029 54.0155 967.031 54.0273C967.033 54.0424 967.03 54.0313 967.03 54H969.03ZM967.53 52C967.01 52 966.689 52.3301 966.566 52.4797C966.418 52.6574 966.319 52.8557 966.255 53.0097C966.132 53.3013 966.03 53.6868 966.03 54H968.03C968.03 54.0407 968.026 54.0284 968.043 53.9584C968.057 53.8996 968.077 53.836 968.099 53.7837C968.125 53.7222 968.133 53.7221 968.106 53.7553C968.091 53.7739 968.044 53.8268 967.96 53.8796C967.87 53.9353 967.723 54 967.53 54V52ZM966.03 54V56H968.03V54H966.03Z" fill="black" mask="url(#path-9-outside-1_22618_1440)"/>
</g>
<defs>
<filter id="filter0_i_22618_1440" x="0" y="0" width="1440" height="80" filterUnits="userSpaceOnUse" color-interpolation-filters="sRGB">
<feFlood flood-opacity="0" result="BackgroundImageFix"/>
<feBlend mode="normal" in="SourceGraphic" in2="BackgroundImageFix" result="shape"/>
<feColorMatrix in="SourceAlpha" type="matrix" values="0 0 0 0 0 0 0 0 0 0 0 0 0 0 0 0 0 0 127 0" result="hardAlpha"/>
<feOffset dy="-1"/>
<feComposite in2="hardAlpha" operator="arithmetic" k2="-1" k3="1"/>
<feColorMatrix type="matrix" values="0 0 0 0 0.819608 0 0 0 0 0.823529 0 0 0 0 0.839216 0 0 0 1 0"/>
<feBlend mode="normal" in2="shape" result="effect1_innerShadow_22618_1440"/>
</filter>
<filter id="filter1_d_22618_1440" x="958" y="43" width="19.0791" height="20" filterUnits="userSpaceOnUse" color-interpolation-filters="sRGB">
<feFlood flood-opacity="0" result="BackgroundImageFix"/>
<feColorMatrix in="SourceAlpha" type="matrix" values="0 0 0 0 0 0 0 0 0 0 0 0 0 0 0 0 0 0 127 0" result="hardAlpha"/>
<feOffset dy="1"/>
<feGaussianBlur stdDeviation="1"/>
<feColorMatrix type="matrix" values="0 0 0 0 0 0 0 0 0 0 0 0 0 0 0 0 0 0 1 0"/>
<feBlend mode="normal" in2="BackgroundImageFix" result="effect1_dropShadow_22618_1440"/>
<feBlend mode="normal" in="SourceGraphic" in2="effect1_dropShadow_22618_1440" result="shape"/>
</filter>
</defs>
</svg>
