<svg width="623" height="94" viewBox="0 0 623 94" fill="none" xmlns="http://www.w3.org/2000/svg">
<g filter="url(#filter0_b_22618_1422)">
<path d="M0 42C0 24.3269 14.3269 10 32 10H576C593.673 10 608 24.3269 608 42C608 59.6731 593.673 74 576 74H32C14.3269 74 0 59.6731 0 42Z" fill="white"/>
<path d="M0.5 42C0.5 24.603 14.603 10.5 32 10.5H576C593.397 10.5 607.5 24.603 607.5 42C607.5 59.397 593.397 73.5 576 73.5H32C14.603 73.5 0.5 59.397 0.5 42Z" stroke="#D1D2D6"/>
</g>
<g filter="url(#filter1_d_22618_1422)">
<rect x="440" y="10" width="168" height="64" rx="32" fill="#2A65CC"/>
</g>
<path d="M503.819 40.0786C503.819 41.3325 503.603 42.4341 503.169 43.3833C502.735 44.3267 502.114 45.0532 501.306 45.563C500.503 46.0669 499.577 46.3188 498.528 46.3188C497.491 46.3188 496.565 46.0669 495.751 45.563C494.942 45.0532 494.315 44.3296 493.87 43.3921C493.431 42.4546 493.208 41.3735 493.202 40.1489V39.4282C493.202 38.1802 493.422 37.0786 493.861 36.1235C494.307 35.1685 494.931 34.439 495.733 33.9351C496.542 33.4253 497.468 33.1704 498.511 33.1704C499.554 33.1704 500.477 33.4224 501.279 33.9263C502.088 34.4243 502.712 35.145 503.151 36.0884C503.591 37.0259 503.813 38.1187 503.819 39.3667V40.0786ZM501.596 39.4106C501.596 37.9927 501.326 36.9058 500.787 36.1499C500.254 35.394 499.495 35.0161 498.511 35.0161C497.55 35.0161 496.797 35.394 496.252 36.1499C495.713 36.8999 495.438 37.9634 495.426 39.3403V40.0786C495.426 41.4849 495.698 42.5718 496.243 43.3394C496.794 44.1069 497.556 44.4907 498.528 44.4907C499.513 44.4907 500.269 44.1157 500.796 43.3657C501.329 42.6157 501.596 41.52 501.596 40.0786V39.4106ZM507.81 36.6333L507.871 37.7319C508.574 36.8823 509.497 36.4575 510.64 36.4575C512.62 36.4575 513.628 37.5913 513.663 39.8589V46.1431H511.527V39.9819C511.527 39.3784 511.396 38.9331 511.132 38.646C510.874 38.353 510.449 38.2065 509.857 38.2065C508.996 38.2065 508.354 38.5962 507.933 39.3755V46.1431H505.797V36.6333H507.81ZM524.236 44.6138C524.77 44.6138 525.212 44.4585 525.563 44.1479C525.915 43.8374 526.103 43.4536 526.126 42.9966H528.139C528.115 43.5884 527.931 44.1421 527.585 44.6577C527.239 45.1675 526.771 45.5718 526.179 45.8706C525.587 46.1694 524.948 46.3188 524.263 46.3188C522.933 46.3188 521.878 45.8882 521.099 45.0269C520.319 44.1655 519.93 42.9761 519.93 41.4585V41.2388C519.93 39.7915 520.316 38.6343 521.09 37.7671C521.863 36.894 522.918 36.4575 524.254 36.4575C525.385 36.4575 526.305 36.7886 527.014 37.4507C527.729 38.1069 528.104 38.9712 528.139 40.0435H526.126C526.103 39.4985 525.915 39.0503 525.563 38.6987C525.218 38.3472 524.775 38.1714 524.236 38.1714C523.545 38.1714 523.012 38.4233 522.637 38.9272C522.262 39.4253 522.071 40.1841 522.065 41.2036V41.5464C522.065 42.5776 522.25 43.3481 522.619 43.8579C522.994 44.3618 523.533 44.6138 524.236 44.6138ZM532.023 46.1431H529.888V32.6431H532.023V46.1431ZM536.629 46.1431H534.493V36.6333H536.629V46.1431ZM534.361 34.1636C534.361 33.8354 534.464 33.563 534.669 33.3462C534.88 33.1294 535.179 33.021 535.565 33.021C535.952 33.021 536.251 33.1294 536.462 33.3462C536.673 33.563 536.778 33.8354 536.778 34.1636C536.778 34.4858 536.673 34.7554 536.462 34.9722C536.251 35.1831 535.952 35.2886 535.565 35.2886C535.179 35.2886 534.88 35.1831 534.669 34.9722C534.464 34.7554 534.361 34.4858 534.361 34.1636ZM542.869 44.6138C543.402 44.6138 543.845 44.4585 544.196 44.1479C544.548 43.8374 544.735 43.4536 544.759 42.9966H546.771C546.748 43.5884 546.563 44.1421 546.218 44.6577C545.872 45.1675 545.403 45.5718 544.812 45.8706C544.22 46.1694 543.581 46.3188 542.896 46.3188C541.565 46.3188 540.511 45.8882 539.731 45.0269C538.952 44.1655 538.562 42.9761 538.562 41.4585V41.2388C538.562 39.7915 538.949 38.6343 539.723 37.7671C540.496 36.894 541.551 36.4575 542.887 36.4575C544.018 36.4575 544.938 36.7886 545.646 37.4507C546.361 38.1069 546.736 38.9712 546.771 40.0435H544.759C544.735 39.4985 544.548 39.0503 544.196 38.6987C543.851 38.3472 543.408 38.1714 542.869 38.1714C542.178 38.1714 541.645 38.4233 541.27 38.9272C540.895 39.4253 540.704 40.1841 540.698 41.2036V41.5464C540.698 42.5776 540.883 43.3481 541.252 43.8579C541.627 44.3618 542.166 44.6138 542.869 44.6138ZM551.474 42.0649L550.524 43.0405V46.1431H548.389V32.6431H550.524V40.4302L551.192 39.5952L553.82 36.6333H556.387L552.854 40.5972L556.765 46.1431H554.295L551.474 42.0649Z" fill="white"/>
<path d="M33.1797 36.8594H29.5234V47H28.0312V36.8594H24.3828V35.625H33.1797V36.8594ZM37.3672 47.1562C36.2214 47.1562 35.2891 46.7812 34.5703 46.0312C33.8516 45.276 33.4922 44.2682 33.4922 43.0078V42.7422C33.4922 41.9036 33.651 41.1562 33.9688 40.5C34.2917 39.8385 34.7396 39.3229 35.3125 38.9531C35.8906 38.5781 36.5156 38.3906 37.1875 38.3906C38.2865 38.3906 39.1406 38.7526 39.75 39.4766C40.3594 40.2005 40.6641 41.237 40.6641 42.5859V43.1875H34.9375C34.9583 44.0208 35.2005 44.6953 35.6641 45.2109C36.1328 45.7214 36.7266 45.9766 37.4453 45.9766C37.9557 45.9766 38.388 45.8724 38.7422 45.6641C39.0964 45.4557 39.4062 45.1797 39.6719 44.8359L40.5547 45.5234C39.8464 46.612 38.7839 47.1562 37.3672 47.1562ZM37.1875 39.5781C36.6042 39.5781 36.1146 39.7917 35.7188 40.2188C35.3229 40.6406 35.0781 41.2344 34.9844 42H39.2188V41.8906C39.1771 41.1562 38.9792 40.5885 38.625 40.1875C38.2708 39.7812 37.7917 39.5781 37.1875 39.5781ZM45.1797 41.6328L47.0547 38.5469H48.7422L45.9766 42.7266L48.8281 47H47.1562L45.2031 43.8359L43.25 47H41.5703L44.4219 42.7266L41.6562 38.5469H43.3281L45.1797 41.6328ZM52.2422 36.5V38.5469H53.8203V39.6641H52.2422V44.9062C52.2422 45.2448 52.3125 45.5 52.4531 45.6719C52.5938 45.8385 52.8333 45.9219 53.1719 45.9219C53.3385 45.9219 53.5677 45.8906 53.8594 45.8281V47C53.4792 47.1042 53.1094 47.1562 52.75 47.1562C52.1042 47.1562 51.6172 46.9609 51.2891 46.5703C50.9609 46.1797 50.7969 45.625 50.7969 44.9062V39.6641H49.2578V38.5469H50.7969V36.5H52.2422ZM62.9922 47.1562C61.8464 47.1562 60.9141 46.7812 60.1953 46.0312C59.4766 45.276 59.1172 44.2682 59.1172 43.0078V42.7422C59.1172 41.9036 59.276 41.1562 59.5938 40.5C59.9167 39.8385 60.3646 39.3229 60.9375 38.9531C61.5156 38.5781 62.1406 38.3906 62.8125 38.3906C63.9115 38.3906 64.7656 38.7526 65.375 39.4766C65.9844 40.2005 66.2891 41.237 66.2891 42.5859V43.1875H60.5625C60.5833 44.0208 60.8255 44.6953 61.2891 45.2109C61.7578 45.7214 62.3516 45.9766 63.0703 45.9766C63.5807 45.9766 64.013 45.8724 64.3672 45.6641C64.7214 45.4557 65.0312 45.1797 65.2969 44.8359L66.1797 45.5234C65.4714 46.612 64.4089 47.1562 62.9922 47.1562ZM62.8125 39.5781C62.2292 39.5781 61.7396 39.7917 61.3438 40.2188C60.9479 40.6406 60.7031 41.2344 60.6094 42H64.8438V41.8906C64.8021 41.1562 64.6042 40.5885 64.25 40.1875C63.8958 39.7812 63.4167 39.5781 62.8125 39.5781ZM69.3359 38.5469L69.3828 39.6094C70.0286 38.7969 70.8724 38.3906 71.9141 38.3906C73.7005 38.3906 74.6016 39.3984 74.6172 41.4141V47H73.1719V41.4062C73.1667 40.7969 73.026 40.3464 72.75 40.0547C72.4792 39.763 72.0547 39.6172 71.4766 39.6172C71.0078 39.6172 70.5964 39.7422 70.2422 39.9922C69.888 40.2422 69.612 40.5703 69.4141 40.9766V47H67.9688V38.5469H69.3359ZM78.7578 36.5V38.5469H80.3359V39.6641H78.7578V44.9062C78.7578 45.2448 78.8281 45.5 78.9688 45.6719C79.1094 45.8385 79.349 45.9219 79.6875 45.9219C79.8542 45.9219 80.0833 45.8906 80.375 45.8281V47C79.9948 47.1042 79.625 47.1562 79.2656 47.1562C78.6198 47.1562 78.1328 46.9609 77.8047 46.5703C77.4766 46.1797 77.3125 45.625 77.3125 44.9062V39.6641H75.7734V38.5469H77.3125V36.5H78.7578ZM85.5391 47.1562C84.3932 47.1562 83.4609 46.7812 82.7422 46.0312C82.0234 45.276 81.6641 44.2682 81.6641 43.0078V42.7422C81.6641 41.9036 81.8229 41.1562 82.1406 40.5C82.4635 39.8385 82.9115 39.3229 83.4844 38.9531C84.0625 38.5781 84.6875 38.3906 85.3594 38.3906C86.4583 38.3906 87.3125 38.7526 87.9219 39.4766C88.5312 40.2005 88.8359 41.237 88.8359 42.5859V43.1875H83.1094C83.1302 44.0208 83.3724 44.6953 83.8359 45.2109C84.3047 45.7214 84.8984 45.9766 85.6172 45.9766C86.1276 45.9766 86.5599 45.8724 86.9141 45.6641C87.2682 45.4557 87.5781 45.1797 87.8438 44.8359L88.7266 45.5234C88.0182 46.612 86.9557 47.1562 85.5391 47.1562ZM85.3594 39.5781C84.776 39.5781 84.2865 39.7917 83.8906 40.2188C83.4948 40.6406 83.25 41.2344 83.1562 42H87.3906V41.8906C87.349 41.1562 87.151 40.5885 86.7969 40.1875C86.4427 39.7812 85.9635 39.5781 85.3594 39.5781ZM94.6016 39.8438C94.3828 39.8073 94.1458 39.7891 93.8906 39.7891C92.9427 39.7891 92.2995 40.1927 91.9609 41V47H90.5156V38.5469H91.9219L91.9453 39.5234C92.4193 38.7682 93.0911 38.3906 93.9609 38.3906C94.2422 38.3906 94.4557 38.4271 94.6016 38.5V39.8438ZM99.2891 47.1562C98.1432 47.1562 97.2109 46.7812 96.4922 46.0312C95.7734 45.276 95.4141 44.2682 95.4141 43.0078V42.7422C95.4141 41.9036 95.5729 41.1562 95.8906 40.5C96.2135 39.8385 96.6615 39.3229 97.2344 38.9531C97.8125 38.5781 98.4375 38.3906 99.1094 38.3906C100.208 38.3906 101.062 38.7526 101.672 39.4766C102.281 40.2005 102.586 41.237 102.586 42.5859V43.1875H96.8594C96.8802 44.0208 97.1224 44.6953 97.5859 45.2109C98.0547 45.7214 98.6484 45.9766 99.3672 45.9766C99.8776 45.9766 100.31 45.8724 100.664 45.6641C101.018 45.4557 101.328 45.1797 101.594 44.8359L102.477 45.5234C101.768 46.612 100.706 47.1562 99.2891 47.1562ZM99.1094 39.5781C98.526 39.5781 98.0365 39.7917 97.6406 40.2188C97.2448 40.6406 97 41.2344 96.9062 42H101.141V41.8906C101.099 41.1562 100.901 40.5885 100.547 40.1875C100.193 39.7812 99.7135 39.5781 99.1094 39.5781ZM103.914 42.7031C103.914 41.4062 104.221 40.3646 104.836 39.5781C105.451 38.7865 106.255 38.3906 107.25 38.3906C108.24 38.3906 109.023 38.7292 109.602 39.4062V35H111.047V47H109.719L109.648 46.0938C109.07 46.8021 108.266 47.1562 107.234 47.1562C106.255 47.1562 105.456 46.7552 104.836 45.9531C104.221 45.151 103.914 44.1042 103.914 42.8125V42.7031ZM105.359 42.8672C105.359 43.8255 105.557 44.5755 105.953 45.1172C106.349 45.6589 106.896 45.9297 107.594 45.9297C108.51 45.9297 109.18 45.5182 109.602 44.6953V40.8125C109.169 40.0156 108.505 39.6172 107.609 39.6172C106.901 39.6172 106.349 39.8906 105.953 40.4375C105.557 40.9844 105.359 41.7943 105.359 42.8672Z" fill="#1A1B22"/>
<defs>
<filter id="filter0_b_22618_1422" x="-8" y="2" width="624" height="80" filterUnits="userSpaceOnUse" color-interpolation-filters="sRGB">
<feFlood flood-opacity="0" result="BackgroundImageFix"/>
<feGaussianBlur in="BackgroundImageFix" stdDeviation="4"/>
<feComposite in2="SourceAlpha" operator="in" result="effect1_backgroundBlur_22618_1422"/>
<feBlend mode="normal" in="SourceGraphic" in2="effect1_backgroundBlur_22618_1422" result="shape"/>
</filter>
<filter id="filter1_d_22618_1422" x="425" y="0" width="198" height="94" filterUnits="userSpaceOnUse" color-interpolation-filters="sRGB">
<feFlood flood-opacity="0" result="BackgroundImageFix"/>
<feColorMatrix in="SourceAlpha" type="matrix" values="0 0 0 0 0 0 0 0 0 0 0 0 0 0 0 0 0 0 127 0" result="hardAlpha"/>
<feOffset dy="5"/>
<feGaussianBlur stdDeviation="7.5"/>
<feColorMatrix type="matrix" values="0 0 0 0 0.0534375 0 0 0 0 0.101475 0 0 0 0 0.225 0 0 0 0.2 0"/>
<feBlend mode="normal" in2="BackgroundImageFix" result="effect1_dropShadow_22618_1422"/>
<feBlend mode="normal" in="SourceGraphic" in2="effect1_dropShadow_22618_1422" result="shape"/>
</filter>
</defs>
</svg>
